<svg version="1" xmlns="http://www.w3.org/2000/svg" width="933.333" height="933.333" viewBox="0 0 700.000000 700.000000"><path d="M238 9.4c-75.4 9.8-127.8 66.9-156.5 170.4C71.8 215 64.2 263.7 61 311c-1.4 20.6-2.5 68.9-1.7 72.2.5 2 4.2 5 15 12.1 7.8 5.2 15 10.4 16 11.5 1.8 1.9 1.7 2.5-1.8 18.8-19.8 91.5-10 156.9 28.8 193.1 24.3 22.7 57.3 33.3 103.4 33.3h16.1l10.4 6.6c25.1 15.9 52.5 26.1 83.3 31 14.7 2.3 44.8 2.3 59.4 0 31.3-5 58.6-16 77.7-31.4l6.1-4.9 17.4-.6c11.2-.4 20.8-1.3 27-2.6 54.5-11.1 90.4-47.7 105.4-107.1 7.6-29.9 9.1-69.9 4.1-103.7-1.4-9.1-1.4-9.3 1.1-15.5 9.5-23.5 13.6-53.9 11.5-84.7-2-27.5-5.3-46-16.2-91.2-3.9-15.7-7-29.1-7-29.7 0-.6 2.4-1.4 5.3-1.7 5.7-.7 7.8-1.8 9.5-5.2 1.8-3.3 1.5-5.5-1.7-11.5-1.6-3-5-11.5-7.6-18.9-13.5-38.7-26-63.7-43.3-86.8-7.4-9.9-23.7-26.7-33.2-34.4-44.2-35.7-103.3-52-173.8-47.9-11.4.7-27.1 2.1-34.9 3.2L323 16.9l-10.9-2.5c-25.4-5.7-53.8-7.6-74.1-5zm54.8 149.8c21 16.7 45.9 28.7 75.7 36.4 29 7.5 54.1 10.4 97.5 11.1l32.5.6 6.5 9c21.2 29.5 28.8 41.7 32.8 52.6 2 5.6 2.5 10 3.7 30.6l1.4 24 5.8 5.3c12.7 11.7 20.3 17.9 26.2 21.2l6.3 3.5-.6 21c-1 40.7-7.6 64.4-24.6 88l-5 6.9v-27.9c0-15.4-.3-41.8-.7-58.8l-.6-30.7h-11.2l-1.7 12.3c-2.4 16.2-6.1 32.5-11 47.6-10 30.9-22.1 53.7-41.3 77.6-7.2 9-27.8 30.1-34.6 35.6l-3.7 2.9-14.5-15.5-14.5-15.5.5-7.4c.7-8.6-.6-13.1-4.6-17-5.1-4.9-16.5-4.9-17.7-.1-.9 3.6 1.1 5.5 6 5.5 2.2 0 4.7.4 5.5.9 1.5 1 2.6 8.8 1.7 12.5l-.6 2.6h-18.8c-10.3 0-19.3.4-20 .9-.8.5-1.7 2.4-2.1 4.2l-.7 3.4-12.6.3-12.5.3-1.2-4.5c-.6-2.6-1.9-5-3-5.6-1.1-.6-9.1-1-18.5-1H302v-6.8c0-7.6.9-9.2 5.4-9.2 5.1 0 8.4-4.8 5.4-7.8-1.9-1.9-9.9-1.4-13.6.8-4.6 2.8-6.2 7.3-6.2 17.5v8.7l-14.1 16.6c-7.8 9.2-14.5 16.9-15 17-2.4.9-33.5-28.8-45.5-43.4-12-14.6-20.7-27.9-28.4-43.9-12.2-25.1-18.2-47.3-22.8-83l-.7-6h-10l-.5 54.9-.5 54.9-8.7-17.9c-9.3-19.1-12.9-29.4-15.3-43.1-1.6-8.9-2-29.4-.9-40.2l.7-6.2 6.6-4.3c27.1-17.6 41.8-55.8 50-130.1 1.1-9.9 2.8-20.5 3.7-23.5 2.6-8.7 9.1-20.5 14.8-26.8l2-2.3 1.9 5.3c1 2.9 4.7 15 8.3 26.8 3.6 11.8 7 22 7.6 22.7 1.6 2 4.6 1.5 6.2-1 .8-1.2 1.7-6.4 2-11.7 1.2-17.9 4.4-33.7 8.8-43.9l1.9-4.4 4.8 7.9c8.8 14.2 20.7 26.2 35.6 35.9 4.4 2.8 8.7 5.4 9.6 5.8 2 .7 5.9-1.8 5.9-3.8 0-.7-2.3-6.2-5.1-12.1-6.8-14.6-10.7-26.5-11.5-35.2-.4-4-.4-7.2 0-7.2.3 0 4.1 2.8 8.4 6.2zm96.7 409.2c11 2.1 17.2 3.8 21.6 6.3 3.4 1.8 3.1 1.8-27.8 2.1-17.2.1-45.4.1-62.5 0l-31.3-.3 4.6-2.2c5.8-2.8 18.9-6 29.9-7.2 13.3-1.5 54.8-.6 65.5 1.3z"/><path d="M265.6 215.6c-3 3-1.9 5 5.7 10.3 7.4 5 16.8 9.2 26.6 11.9 8.7 2.3 11.3 2.6 28.6 2.6 14.3 0 23.6-.6 37.5-2.4 14.5-1.9 23.2-2.4 40-2.5 23 0 26.6.6 42.6 6.6 6.8 2.6 9.4 1.9 9.4-2.6 0-3.1-1.5-4.1-10.9-7.5-18.6-6.8-40.7-7.7-78.1-3.3-29.8 3.5-54.6 3.7-66.4.5-9.8-2.7-17.1-6-24.7-11.2-6.5-4.4-8-4.8-10.3-2.4zM257.2 250.2c-4.2 4.2 4.3 16.4 15.4 22.1 5.5 2.8 12.3 3.8 30.9 4.7 20 .9 24.7 2 34.2 8.6 4.4 3 5.5 3.4 7.3 2.4 1.6-.8 2-1.9 1.8-4.2-.2-2.5-1.4-3.9-5.8-6.9-9.2-6.4-15.9-8-36.6-8.9-10-.5-20.1-1.4-22.5-2-6.4-1.7-11.3-5.2-15.9-11.5-4-5.4-6.5-6.6-8.8-4.3zM226.4 289.4c-8.3 2.7-16.2 7-25.3 13.9-7.6 5.7-8.1 6.3-8.1 9.8 0 3 2.8 5.9 5.6 5.9 1 0 5.2-2.5 9.3-5.6 18.7-14 32.9-17.2 49.2-11 6.2 2.3 6.3 2.4 3.4 3.1-4.8 1.2-4.8 1.6-.5 3.7 11.1 5.5 12.1 22.5 1.7 29.5-6.7 4.5-15.8 3.8-21.6-1.6l-3.1-2.9v3.6c.1 8.2 7.2 18.1 16.5 23 4.2 2.2 6.3 2.7 13 2.7 6.8 0 8.9-.4 13.7-2.8 6.2-3 10.5-7.4 14-14 3-5.6 3.2-18.4.4-23.6-1.8-3.3-1.8-3.4 0-2.6 1.1.4 6.5 2.3 12.1 4.3 9.6 3.3 10.3 3.5 12.6 1.9 3-1.9 3.8-4.8 2.3-7.8-.8-1.7-3.7-3.2-10.6-5.5-5.2-1.9-18.7-7.8-30-13.4-11.3-5.5-23.2-10.7-26.5-11.5-8.7-2.2-19.6-1.9-28.1.9zM453.5 288.4c-8.8 2-17.5 5.9-30.9 13.8-14.1 8.3-22.8 12.6-27.6 13.4-4.6.8-7 3.1-7 6.4 0 9.3 12.7 7.4 33.9-5.1 5.6-3.3 11-5.9 11.9-5.7.9.2 2.7 2.1 4 4.3 4.8 8.3 1 20.6-7.4 24.1-4.4 1.9-11.8 1.8-15.5-.2-1.7-.8-3.3-1.4-3.5-1.1-.2.2.2 2.5 1 5.1 4.2 13.8 16.8 22.5 31 21.4 10.4-.9 18.9-6.5 24.2-16 2.6-4.7 2.9-6.3 2.9-13.8 0-7.6-.3-9.1-3-13.9-3.6-6.5-9.2-11.5-15.4-13.7-9.2-3.2-9.1-3-1.6-5.3 16.9-5.4 33.3-2 52 10.8 6.8 4.6 8.6 5 11.5 2.1 4.6-4.6 1.8-8.7-11.9-17-15.5-9.2-34.1-12.9-48.6-9.6z"/></svg>